# xmcd
#
# Track frame offsets:
#	187
#	18225
#	31975
#	46762
#	66340
#	79825
#	103900
#	120372
#	140090
#	159302
#
# Disc length: 2264 seconds
#
# Revision: 1
# Processed by: cddbd v1.5.2PL0 Copyright (c) Steve Scherf et al.
# Submitted via: FairStars CD Ripper 1.90
#
DISCID=7c08d60a
DTITLE=Johnny and the Distractions - My Desire
DYEAR=2008
DGENRE=rock
TTITLE0=Octane Twilight
TTITLE1=Complicated Now
TTITLE2=Just a Little*
TTITLE3=Guys Like Me
TTITLE4=Let It Rock
TTITLE5=Shoulder Of The Road
TTITLE6=Forever
TTITLE7=My Desire
TTITLE8=Rosie
TTITLE9=Buick '55
EXTD=
EXTT0=
EXTT1=
EXTT2=
EXTT3=
EXTT4=
EXTT5=
EXTT6=
EXTT7=
EXTT8=
EXTT9=
PLAYORDER=
